<svg xmlns="http://www.w3.org/2000/svg" id="emoji" viewBox="0 0 72 72"><g id="color"><polygon fill="#F1B31C" stroke="none" points="26.181 20.181 38.75 32.75 51.319 45.319 29.789 54.28 8.26 63.24 17.22 41.711"/><polygon fill="#FCEA2B" stroke="none" points="40 35 25.692 20.669 16.391 42.539 7.09 64.409"/><polygon fill="#EA5A47" stroke="none" points="15.224 45.285 26.286 56.347 20.755 58.598 12.958 50.801"/><polygon fill="#D22F27" stroke="none" points="17.343 55.248 20.755 58.598 26.286 56.347 21.485 51.546"/><polygon fill="#EA5A47" stroke="none" points="20.805 32.163 27.501 38.859 39.2 50.558 32.927 53.422 24.756 45.25 18.15 38.645"/><polygon fill="#D22F27" stroke="none" points="26.537 47.031 32.927 53.422 39.2 50.558 31.362 42.72"/><ellipse cx="30.295" cy="14.458" fill="#8967aa" stroke="none" rx="2" ry="1.971"/><path fill="#ea5a47" stroke="none" d="M23,37"/><ellipse cx="60.295" cy="18.458" fill="#f1b31c" stroke="none" rx="2" ry="1.971"/><ellipse cx="57.295" cy="39.458" fill="#d22f27" stroke="none" rx="2" ry="1.971"/></g><g id="line"><polyline fill="none" stroke="#000" stroke-linecap="round" stroke-linejoin="round" stroke-miterlimit="10" stroke-width="2" points="50.663 45.639 50.831 45.808 28.961 55.109 7.09 64.41 16.391 42.539 25.692 20.669"/><polyline fill="none" stroke="#000" stroke-linecap="round" stroke-linejoin="round" stroke-miterlimit="10" stroke-width="2" points="25.801 20.778 38.262 33.238 50.663 45.639"/><line x1="25.692" x2="25.801" y1="20.669" y2="20.778" fill="none" stroke="#000" stroke-linecap="round" stroke-linejoin="round" stroke-miterlimit="10" stroke-width="2"/><path fill="none" stroke="#000" stroke-linecap="round" stroke-linejoin="round" stroke-miterlimit="10" stroke-width="2" d="M46.4905,7.3671c0.2347,0.4487,0.4027,0.943,0.4897,1.473c0.451,2.7473-1.447,5.4141-4.2392,5.9565"/><path fill="none" stroke="#000" stroke-linecap="round" stroke-linejoin="round" stroke-miterlimit="10" stroke-width="2" d="M42.9327,14.7763c-0.5049,0.0384-1.0133,0.1573-1.509,0.364c-2.5697,1.0713-3.828,4.093-2.8105,6.7492"/><path fill="none" stroke="#000" stroke-linecap="round" stroke-linejoin="round" stroke-miterlimit="10" stroke-width="2" d="M61.7928,26.7168c-0.0987,0.4967-0.2778,0.987-0.5425,1.4544c-1.372,2.4225-4.5229,3.309-7.0378,1.98"/><path fill="none" stroke="#000" stroke-linecap="round" stroke-linejoin="round" stroke-miterlimit="10" stroke-width="2" d="M54.3745,30.2558c-0.4173-0.2868-0.8878-0.513-1.4036-0.663c-2.6733-0.7775-5.5486,0.7867-6.4223,3.4936"/></g></svg>