<svg xmlns="http://www.w3.org/2000/svg" id="emoji" x="0" y="0" enable-background="new 0 0 72 72" version="1.1" viewBox="0 0 72 72" xml:space="preserve"><g id="line-supplement"><line id="xx" x1="36.8" x2="58.4" y1="37" y2="37" fill="none" stroke="#000" stroke-linecap="round" stroke-linejoin="round" stroke-miterlimit="10" stroke-width="2"/></g><g id="color"><polygon fill="#F4AA41" points="12.9 36 16.5 67 55.5 67 59.1 36"/><polygon fill="#E27022" points="45.1 36 41.5 67 55.5 67 59.1 36"/><rect width="13.3" height="13.6" x="38.214" y="48.514" fill="#FFF" transform="matrix(0.157 -0.9876 0.9876 0.157 -16.8073 90.937)"/><rect width="14.501" height="12.7" x="18.808" y="35.891" fill="#FFF" transform="matrix(0.9535 -0.3015 0.3015 0.9535 -11.5227 9.8218)"/></g><g id="line"><polyline fill="none" stroke="#000" stroke-linecap="round" stroke-linejoin="round" stroke-miterlimit="10" stroke-width="2" points="60 28 55.5 67 16.5 67 12 28"/><rect width="13.3" height="13.6" x="38.214" y="48.514" fill="none" stroke="#000" stroke-linecap="round" stroke-linejoin="round" stroke-miterlimit="10" stroke-width="1.792" transform="matrix(0.157 -0.9876 0.9876 0.157 -16.8073 90.937)"/><rect width="14.501" height="12.7" x="18.808" y="35.891" fill="none" stroke="#000" stroke-linecap="round" stroke-linejoin="round" stroke-miterlimit="10" stroke-width="1.808" transform="matrix(0.9535 -0.3015 0.3015 0.9535 -11.5227 9.8218)"/></g></svg>